PathFileType	4	(X/Y/Z)	s10c0101.trc
DataRate	CameraRate	NumFrames	NumMarkers	Units	OrigDataRate	OrigDataStartFrame	OrigNumFrames
200	200	4	49	mm	200	0	2000
Frame#	Time	racr			lacr			c7			jug			rlel			rdr			llel			ldr			s2			lic			ric			lasi			rasi			rpsi			lpsi			rgt			lgt			rth1			rth2			rth3			rth4			rlfc			rmfc			rsh1			rsh2			rsh3			rsh4			rlmal			rmmal			rcal			rtoe			rmt5			lth1			lth2			lth4			lth3			llfc			lmfc			llmal			lcal			lmt5			lsh1			lsh2			lsh3			lsh4			ltoe			SBIKE			LBIKE			RBIKE			
		X1	Y1	Z1	X2	Y2	Z2	X3	Y3	Z3	X4	Y4	Z4	X5	Y5	Z5	X6	Y6	Z6	X7	Y7	Z7	X8	Y8	Z8	X9	Y9	Z9	X10	Y10	Z10	X11	Y11	Z11	X12	Y12	Z12	X13	Y13	Z13	X14	Y14	Z14	X15	Y15	Z15	X16	Y16	Z16	X17	Y17	Z17	X18	Y18	Z18	X19	Y19	Z19	X20	Y20	Z20	X21	Y21	Z21	X22	Y22	Z22	X23	Y23	Z23	X24	Y24	Z24	X25	Y25	Z25	X26	Y26	Z26	X27	Y27	Z27	X28	Y28	Z28	X29	Y29	Z29	X30	Y30	Z30	X31	Y31	Z31	X32	Y32	Z32	X33	Y33	Z33	X34	Y34	Z34	X35	Y35	Z35	X36	Y36	Z36	X37	Y37	Z37	X38	Y38	Z38	X39	Y39	Z39	X40	Y40	Z40	X41	Y41	Z41	X42	Y42	Z42	X43	Y43	Z43	X44	Y44	Z44	X45	Y45	Z45	X46	Y46	Z46	X47	Y47	Z47	X48	Y48	Z48	X49	Y49	Z49	
0	0.0000	400.692732	1289.715987	-50.376931	396.001066	1292.616346	-399.285941	390.533115	1354.994966	-225.390876	401.620950	1213.357575	-221.448536	496.639599	1050.444487	11.696860	642.533252	877.812251	-46.570640	482.415548	1042.960919	-474.743555	636.632011	882.064564	-411.021345	-104.124383	1110.814405	-215.991038	61.888511	1103.036621	-372.273205	81.670818	1117.211004	-76.906543	79.375145	1011.974145	-341.205875	66.987830	1034.276774	-81.838039	-54.751694	1156.481028	-161.958275	-47.531392	1157.241553	-271.618110	-46.236489	1025.072989	-18.054278	-51.660661	985.491135	-410.021898	60.333076	926.561591	-3.960294	147.155988	913.764025	-18.595878	213.138098	859.548477	-24.530457	159.644818	947.763318	-27.673178	313.495971	810.292962	-47.331803	303.126690	801.404215	-164.850124	260.393078	708.245339	-21.460916	261.706669	619.787857	-35.016944	219.814884	544.489755	-41.503175	291.077999	616.558597	-60.476790	194.311498	443.590750	-60.300814	212.257958	466.684637	-139.735860	142.251379	412.576200	-104.596348	384.054298	426.635063	-105.578612	308.317345	388.703562	-41.452713	16.639610	872.903891	-428.361527	90.331019	827.643050	-420.528852	116.203814	852.277681	-412.668057	131.968372	749.274497	-417.534371	202.174660	663.194119	-402.023015	209.187886	657.861048	-283.249371	-44.178225	381.987870	-379.072360	-103.458359	384.067474	-334.329567	10.487191	250.649068	-399.889091	109.892167	581.741394	-424.866146	83.634559	499.656472	-407.752646	15.285718	442.025734	-400.028182	108.282746	486.245791	-382.048617	95.772607	229.593749	-345.426916	-218.166009	834.864668	-214.320025	-104.143431	81.647897	-417.275976	-103.621032	81.243370	-17.913827	
1	0.0050	400.664536	1289.703531	-50.378504	395.986449	1292.624453	-399.309501	390.503834	1354.993436	-225.372234	401.590399	1213.355497	-221.449642	496.589091	1050.408033	11.711483	642.562200	877.781394	-46.542141	482.433299	1043.004660	-474.770395	636.630872	882.081041	-411.022028	-104.144664	1110.800790	-216.052649	61.843753	1103.076773	-372.316269	81.637353	1117.188010	-76.920997	79.398094	1011.992799	-341.253626	66.939432	1034.257229	-81.882448	-54.751345	1156.466469	-162.008823	-47.550925	1157.232697	-271.640094	-46.305042	1024.998084	-18.119063	-51.614076	985.495684	-410.091261	60.204595	926.355964	-4.020155	147.027777	913.515882	-18.627318	212.965044	859.213514	-24.591211	159.608295	947.484579	-27.690600	313.285273	809.938567	-47.359879	302.969552	801.064134	-164.847853	260.269848	707.910644	-21.513635	261.583163	619.485732	-35.017292	219.718250	544.179872	-41.505545	290.983306	616.358155	-60.477744	194.276419	443.291871	-60.307560	211.807079	465.932276	-139.749526	142.910068	411.496225	-105.132818	384.020350	426.534365	-105.575479	308.344177	388.522266	-41.459851	16.713506	872.905087	-428.409497	90.417575	827.657048	-420.582008	116.279542	852.307370	-412.699716	132.053924	749.319917	-417.571173	202.299171	663.280150	-402.072321	209.323212	657.822710	-282.891520	-44.199627	382.186201	-379.113329	-103.470592	384.288642	-334.347166	10.438767	250.846009	-399.890338	109.976480	581.830427	-424.891846	83.680249	499.751919	-407.766616	15.307581	442.156676	-400.020991	108.301580	486.345398	-382.049431	95.743119	229.735064	-345.440709	-218.144492	834.829929	-214.303303	-104.093024	81.717210	-417.273492	-103.490094	81.131231	-17.894441	
2	0.0100	400.620906	1289.682112	-50.356948	395.980669	1292.624070	-399.315016	390.481412	1354.991964	-225.374405	401.554117	1213.343637	-221.455947	496.563711	1050.390125	11.723482	642.549816	877.795933	-46.557701	482.476424	1043.020944	-474.754707	636.643670	882.081970	-411.057730	-104.174521	1110.790130	-216.105626	61.827638	1103.108054	-372.346137	81.585561	1117.171162	-76.921799	79.390629	1012.034873	-341.286563	66.895459	1034.177836	-81.938174	-54.813126	1156.478725	-162.032889	-47.564713	1157.233148	-271.692391	-46.367743	1024.933932	-18.180422	-51.590540	985.469293	-410.139033	60.120066	926.203557	-4.080954	146.943762	913.275172	-18.663273	212.828779	858.906380	-24.672921	159.540478	947.265438	-27.718723	313.137497	809.694472	-47.425276	302.837371	800.813063	-164.858708	260.169006	707.567190	-21.516711	261.430755	619.225308	-35.012899	219.632835	543.861325	-41.526899	290.870701	616.141158	-60.463071	194.255273	442.915198	-60.315724	211.769748	465.607585	-139.764269	142.981010	411.319294	-105.209599	384.021594	426.423489	-105.577296	308.386921	388.319738	-41.464217	16.770096	872.915117	-428.463071	90.495526	827.656901	-420.610104	116.351647	852.316208	-412.743564	132.149170	749.342854	-417.595138	202.390447	663.365007	-402.146620	209.388497	657.873469	-282.939023	-44.201698	382.377744	-379.108528	-103.495876	384.500967	-334.372531	10.376535	251.037601	-399.904391	110.033162	581.900461	-424.923105	83.704597	499.861354	-407.777153	15.314869	442.287380	-400.042137	108.332114	486.435697	-382.070102	95.650172	229.893799	-345.461436	-218.163000	834.873714	-214.335845	-104.098235	81.711775	-417.264565	-103.610709	81.240516	-17.916366	
3	0.0150	400.559101	1289.653972	-50.338100	395.954305	1292.623676	-399.324165	390.441000	1354.973496	-225.386216	401.523986	1213.329815	-221.465146	496.504484	1050.365897	11.744484	642.523683	877.772050	-46.583997	482.485205	1043.058180	-474.753218	636.630809	882.080797	-411.022054	-104.222678	1110.782061	-216.149756	61.798401	1103.126760	-372.376571	81.463717	1117.389607	-76.781829	79.480237	1012.245675	-341.591371	66.832668	1034.162600	-81.970733	-54.859502	1156.453271	-162.093892	-47.263529	1156.895218	-271.945299	-46.432586	1024.875418	-18.234329	-51.569048	985.419335	-410.169302	59.851611	925.740710	-4.727100	146.506362	912.957698	-18.833303	212.713386	858.592322	-24.743290	159.544476	946.896376	-27.852950	312.978933	809.471350	-47.477659	302.720619	800.530159	-164.840645	260.054281	707.338893	-21.545156	261.420753	619.044067	-35.402327	219.548999	543.558453	-41.491996	290.701709	615.996061	-60.428754	194.222680	442.577404	-60.304204	211.054235	463.962509	-139.792652	142.933374	410.945526	-105.165989	384.005165	426.310370	-105.584117	308.407277	388.107383	-41.468690	16.825646	872.895945	-428.505117	90.563569	827.678842	-420.640688	116.410712	852.521628	-412.991728	132.229986	749.374119	-417.650349	202.497664	663.410190	-402.201134	209.186787	658.116142	-283.320097	-44.238933	382.558305	-379.122149	-103.520105	384.709811	-334.358539	10.310144	251.238934	-399.916720	110.063642	581.998204	-424.974676	83.160667	498.865916	-408.222309	15.183985	442.639611	-399.912907	108.336988	486.510167	-382.077874	95.568266	230.090131	-345.477357	-218.174115	834.864332	-214.330092	-104.111633	81.674310	-417.255926	-103.624139	81.227433	-17.918591	
